<?xml version="1.0" standalone="no"?>
<!DOCTYPE svg PUBLIC "-//W3C//DTD SVG 20010904//EN"
 "http://www.w3.org/TR/2001/REC-SVG-20010904/DTD/svg10.dtd">
<svg version="1.0" xmlns="http://www.w3.org/2000/svg"
 width="251.000000pt" height="226.000000pt" viewBox="0 0 251.000000 226.000000"
 preserveAspectRatio="xMidYMid meet">
<metadata>
HelpOthers.eu
</metadata>
<g transform="translate(0.000000,226.000000) scale(0.100000,-0.100000)"
fill="#000000" stroke="none">
<path d="M1785 2189 c-16 -11 -68 -39 -115 -62 -47 -23 -87 -44 -90 -47 -5 -6
-94 -54 -175 -94 -22 -11 -42 -22 -45 -25 -3 -3 -34 -21 -70 -39 -36 -18 -101
-53 -145 -77 -44 -24 -109 -59 -145 -77 -36 -18 -67 -35 -70 -39 -3 -3 -30
-18 -60 -33 -30 -16 -70 -37 -87 -48 l-33 -19 49 109 c27 61 56 125 64 144 42
93 46 142 18 203 -34 73 -89 107 -173 106 -30 0 -61 -8 -85 -22 -40 -22 -93
-91 -113 -144 -6 -16 -17 -37 -24 -45 -8 -8 -42 -70 -77 -137 -35 -66 -85
-161 -111 -210 -26 -48 -62 -117 -81 -153 -19 -36 -50 -94 -69 -130 -42 -76
-73 -162 -86 -240 -10 -53 -9 -235 1 -275 3 -11 10 -42 16 -68 25 -109 113
-300 177 -384 13 -17 24 -34 24 -37 0 -9 48 -62 98 -109 119 -113 253 -168
412 -171 101 -1 169 6 210 22 14 5 27 10 30 9 6 0 200 90 220 102 8 6 44 25
80 43 36 18 67 36 70 39 3 3 23 14 45 25 43 22 202 107 275 147 25 14 74 40
110 59 36 18 67 35 70 38 3 3 37 21 75 40 39 19 72 38 75 41 3 3 17 12 33 20
117 60 163 85 167 90 3 4 21 13 40 22 41 17 93 62 110 96 21 40 14 109 -15
153 -14 21 -32 38 -40 38 -8 0 -15 4 -15 9 0 10 -75 26 -100 22 -24 -4 -90
-34 -90 -41 0 -4 -18 -13 -40 -20 -22 -7 -40 -17 -40 -21 0 -4 -12 -12 -27
-18 -16 -5 -64 -30 -108 -55 -44 -24 -109 -59 -145 -78 -36 -18 -67 -35 -70
-38 -3 -3 -28 -17 -56 -31 -41 -22 -54 -24 -67 -14 -31 22 -20 51 26 75 23 11
69 37 102 56 33 19 76 42 95 52 19 9 37 20 40 23 3 4 21 14 40 23 19 8 67 33
105 55 39 22 99 54 135 73 36 18 67 35 70 38 4 4 108 59 187 99 67 33 104 93
97 160 -5 51 -18 78 -53 109 -48 42 -141 51 -181 18 -8 -7 -31 -19 -50 -26
-19 -8 -37 -17 -40 -20 -3 -3 -25 -16 -50 -29 -96 -49 -279 -146 -350 -185
-41 -23 -97 -53 -125 -67 -27 -13 -56 -30 -63 -36 -7 -7 -20 -13 -27 -13 -7 0
-20 -7 -29 -15 -14 -14 -17 -14 -36 5 -12 12 -20 26 -18 32 4 12 54 41 168
100 36 18 67 36 70 39 3 3 23 14 45 25 22 11 76 39 120 63 44 24 102 55 130
70 27 14 55 32 63 39 7 6 18 12 23 12 6 0 52 25 103 55 50 30 97 55 104 55 7
0 12 4 12 9 0 5 9 13 21 16 29 10 69 99 63 142 -8 62 -48 116 -101 134 -34 11
-112 6 -122 -9 -3 -4 -42 -26 -86 -48 -104 -53 -248 -130 -305 -163 -156 -90
-446 -233 -467 -229 -11 2 -19 13 -21 28 -2 22 7 30 65 60 38 19 70 37 73 40
3 3 21 13 40 22 35 17 79 42 235 128 133 75 198 109 243 131 83 39 112 169 55
239 -51 60 -147 79 -208 39z m-1051 -1022 c22 -12 51 -38 64 -57 29 -44 45
-44 74 0 92 136 332 105 407 -53 88 -187 -45 -425 -358 -638 -40 -27 -79 -49
-86 -49 -19 0 -149 89 -228 157 -247 211 -314 458 -164 602 74 71 202 88 291
38z"/>
</g>
</svg>
