<svg width="92" height="94" viewBox="0 0 92 94" xmlns="http://www.w3.org/2000/svg"><path d="M14.345 14.345C20.68 8.013 29.698 5.553 38.19 7.36c-.855.7-1.684 1.442-2.48 2.238L14.916 30.396c-.712.71-1.068 1.705-.967 2.71.1 1 .644 1.906 1.483 2.46 4.002 2.648 13.707 5.166 23.228-2.92 3.74 1.714 11.61 4.692 19.335 3.76L78.39 57.953c.943 1 .926 2.548-.165 3.636-.953.957-2.622.95-3.57 0l-7.458-7.456c-1.31-1.313-3.435-1.313-4.747 0-1.313 1.31-1.313 3.434 0 4.747l7.46 7.46c.476.474.738 1.108.738 1.783 0 .675-.262 1.31-.74 1.786-.952.953-2.61.956-3.57 0l-7.457-7.457c-1.31-1.313-3.437-1.313-4.746 0-1.312 1.31-1.312 3.438 0 4.747l7.453 7.453c.987.987.987 2.59.003 3.575-.983.984-2.588.984-3.572 0l-7.456-7.456c0-.003-.003-.003-.003-.003l-.676-.676c-.423-.81-.93-1.585-1.61-2.263-1.536-1.54-3.583-2.36-5.685-2.54-.18-2.182-1.072-4.217-2.636-5.78-1.54-1.54-3.59-2.358-5.69-2.54-.172-2.108-1.02-4.17-2.63-5.78-1.537-1.538-3.585-2.357-5.683-2.538-.177-2.182-1.07-4.214-2.634-5.778-3.488-3.49-9.572-3.49-13.066 0L9.22 43.9c-4.644-9.795-2.754-21.676 5.125-29.555zM53.27 86.547c-.95.957-2.624.95-3.57 0l-3.54-3.538 2.113-2.116c.503-.504.92-1.058 1.282-1.635l3.716 3.715c.478.477.74 1.11.74 1.786 0 .676-.262 1.31-.74 1.787zM4.013 49.112c-1.75 1.745-2.71 4.065-2.71 6.533 0 2.47.964 4.79 2.71 6.533 1.544 1.544 3.55 2.434 5.697 2.625.187 2.078 1.033 4.11 2.618 5.697 1.547 1.54 3.548 2.427 5.697 2.622.194 2.148 1.08 4.15 2.625 5.694 1.54 1.544 3.545 2.43 5.69 2.625.195 2.15 1.08 4.15 2.626 5.698 1.75 1.742 4.065 2.703 6.536 2.703 2.17 0 4.2-.782 5.848-2.145l3.602 3.6C46.702 93.04 49.018 94 51.485 94c2.47 0 4.788-.963 6.533-2.706 1.545-1.544 2.43-3.548 2.626-5.697 2.078-.188 4.11-1.034 5.693-2.622 1.588-1.588 2.434-3.615 2.622-5.694 2.148-.193 4.152-1.08 5.696-2.624 1.54-1.544 2.43-3.545 2.626-5.694 2.148-.194 4.163-1.094 5.808-2.74 3.357-3.356 3.578-8.553.7-12.21C94.773 41.156 94.21 21.755 82.053 9.6 75.865 3.408 67.637 0 58.885 0c-4.58 0-9 .953-13.077 2.726C33.535-2.61 19.128.064 9.598 9.598c-10.48 10.48-12.55 26.6-5.36 39.29l-.226.224z" fill="#78A93A" fill-rule="evenodd"/></svg>