<svg width="41" height="51" viewBox="0 0 41 51" xmlns="http://www.w3.org/2000/svg">
<g fill="#FFF" fill-rule="evenodd">
<path d="M.5 50.502c.334.332.77.498 1.21.498.436 0 .873-.166 1.207-.498l23.916-23.8c.668-.664.668-1.74 0-2.403L2.917.5C2.25-.167 1.17-.167.5.5c-.667.663-.667 1.738 0 2.402L23.21 25.5.5 48.1c-.667.663-.667 1.738 0 2.402"/><path d="M16.583.5c-.668-.666-1.747-.666-2.415 0-.668.663-.668 1.738 0 2.402L36.878 25.5l-22.71 22.6c-.668.663-.668 1.738 0 2.402.333.332.77.498 1.207.498.438 0 .875-.166 1.208-.498l23.917-23.8c.668-.664.668-1.74 0-2.403L16.583.5z"/>
</g>
</svg>
